<svg width="19" height="19" viewBox="0 0 19 19" fill="none" xmlns="http://www.w3.org/2000/svg">
<path d="M9.65625 0.248535C7.21387 0.248535 6.90675 0.259785 5.94713 0.302535C4.9875 0.347535 4.33388 0.498285 3.76125 0.721035C3.16061 0.946957 2.61655 1.30134 2.16713 1.75941C1.70934 2.20907 1.355 2.75306 1.12875 3.35354C0.906 3.92504 0.754125 4.57978 0.71025 5.53604C0.6675 6.49791 0.65625 6.80391 0.65625 9.24966C0.65625 11.6932 0.6675 11.9992 0.71025 12.9588C0.75525 13.9173 0.906 14.5709 1.12875 15.1435C1.35938 15.7353 1.6665 16.237 2.16713 16.7377C2.66663 17.2383 3.16838 17.5465 3.76013 17.776C4.33388 17.9988 4.98638 18.1507 5.94488 18.1945C6.90563 18.2373 7.21163 18.2485 9.65625 18.2485C12.1009 18.2485 12.4058 18.2373 13.3665 18.1945C14.3239 18.1495 14.9798 17.9988 15.5524 17.776C16.1526 17.55 16.6963 17.1956 17.1454 16.7377C17.646 16.237 17.9531 15.7353 18.1838 15.1435C18.4054 14.5709 18.5573 13.9173 18.6023 12.9588C18.645 11.9992 18.6562 11.6932 18.6562 9.24854C18.6562 6.80391 18.645 6.49791 18.6023 5.53716C18.5573 4.57979 18.4054 3.92504 18.1838 3.35354C17.9575 2.75304 17.6032 2.20905 17.1454 1.75941C16.6961 1.30117 16.152 0.946761 15.5513 0.721035C14.9775 0.498285 14.3228 0.34641 13.3654 0.302535C12.4046 0.259785 12.0998 0.248535 9.654 0.248535H9.65738H9.65625ZM8.84963 1.87079H9.65738C12.0604 1.87079 12.345 1.87866 13.2934 1.92254C14.1709 1.96191 14.6479 2.10929 14.9651 2.23191C15.3848 2.39504 15.6851 2.59079 16.0001 2.90579C16.3151 3.22079 16.5098 3.52004 16.6729 3.94079C16.7966 4.25691 16.9429 4.73391 16.9823 5.61141C17.0261 6.55979 17.0351 6.84441 17.0351 9.24629C17.0351 11.6482 17.0261 11.9339 16.9823 12.8823C16.9429 13.7598 16.7955 14.2357 16.6729 14.5529C16.5286 14.9437 16.2983 15.297 15.999 15.5868C15.684 15.9018 15.3848 16.0964 14.964 16.2595C14.649 16.3833 14.172 16.5295 13.2934 16.57C12.345 16.6128 12.0604 16.6229 9.65738 16.6229C7.25438 16.6229 6.96863 16.6128 6.02025 16.57C5.14275 16.5295 4.66687 16.3833 4.34963 16.2595C3.95869 16.1154 3.60502 15.8856 3.31463 15.5868C3.01509 15.2966 2.78444 14.9429 2.63963 14.5518C2.517 14.2357 2.36963 13.7587 2.33025 12.8812C2.2875 11.9328 2.2785 11.6482 2.2785 9.24403C2.2785 6.84103 2.2875 6.55754 2.33025 5.60916C2.37075 4.73166 2.517 4.25466 2.64075 3.93741C2.80388 3.51779 2.99962 3.21741 3.31463 2.90241C3.62963 2.58741 3.92887 2.39279 4.34963 2.22966C4.66687 2.10591 5.14275 1.95966 6.02025 1.91916C6.8505 1.88091 7.17225 1.86966 8.84963 1.86854V1.87079ZM14.4611 3.36479C14.3193 3.36479 14.1789 3.39272 14.0478 3.447C13.9168 3.50127 13.7977 3.58082 13.6975 3.68111C13.5972 3.7814 13.5176 3.90046 13.4633 4.03149C13.4091 4.16252 13.3811 4.30296 13.3811 4.44479C13.3811 4.58661 13.4091 4.72705 13.4633 4.85808C13.5176 4.98911 13.5972 5.10817 13.6975 5.20846C13.7977 5.30875 13.9168 5.3883 14.0478 5.44258C14.1789 5.49685 14.3193 5.52479 14.4611 5.52479C14.7476 5.52479 15.0223 5.411 15.2248 5.20846C15.4273 5.00592 15.5411 4.73122 15.5411 4.44479C15.5411 4.15835 15.4273 3.88365 15.2248 3.68111C15.0223 3.47857 14.7476 3.36479 14.4611 3.36479ZM9.65738 4.62704C9.04433 4.61747 8.43551 4.72996 7.86635 4.95794C7.29719 5.18593 6.77908 5.52487 6.34217 5.95501C5.90526 6.38516 5.55828 6.89792 5.32145 7.46345C5.08461 8.02898 4.96264 8.63598 4.96264 9.2491C4.96264 9.86222 5.08461 10.4692 5.32145 11.0347C5.55828 11.6003 5.90526 12.113 6.34217 12.5432C6.77908 12.9733 7.29719 13.3123 7.86635 13.5403C8.43551 13.7682 9.04433 13.8807 9.65738 13.8712C10.8707 13.8522 12.028 13.3569 12.8793 12.4922C13.7307 11.6274 14.2079 10.4626 14.2079 9.2491C14.2079 8.03559 13.7307 6.87075 12.8793 6.006C12.028 5.14126 10.8707 4.64597 9.65738 4.62704ZM9.65738 6.24816C10.4531 6.24816 11.2163 6.56427 11.779 7.12695C12.3416 7.68963 12.6578 8.45279 12.6578 9.24854C12.6578 10.0443 12.3416 10.8074 11.779 11.3701C11.2163 11.9328 10.4531 12.2489 9.65738 12.2489C8.86163 12.2489 8.09847 11.9328 7.53579 11.3701C6.97311 10.8074 6.657 10.0443 6.657 9.24854C6.657 8.45279 6.97311 7.68963 7.53579 7.12695C8.09847 6.56427 8.86163 6.24816 9.65738 6.24816Z" fill="white"/>
</svg>
